#!OML:ASF X:\für Bonn\!DataBase\2005_08_11_Bastian_Final\c3d\Bastian.ASF
:FULLY-SPECIFIED
:DEGREES
92
root 0.760169 9.95989 1.49731 170.638 -3.83363 -174.322
lowerback 34.1164 -0.674993 2.62528
upperback 4.14062 -1.2008 1.21121
thorax -12.8323 -1.24897 0.527063
lowerneck -14.6994 -5.45371 -4.11909
upperneck -10.4882 -8.14888 11.81
head -0.155764 -4.70593 4.2548
rclavicle 2.36554e-014 -1.11319e-014
rhumerus 69.7402 -0.315649 20.3959
rradius 42.9218
rwrist -73.3221
rhand -47.7625 -3.99742
rfingers 7.12502
rthumb -20.4402 -32.9416
lclavicle 2.36554e-014 -1.11319e-014
lhumerus 63.4394 -7.94373 -33.006
lradius 33.8747
lwrist 31.5253
lhand -47.4365 18.2501
lfingers 7.12502
lthumb -20.1269 47.2275
rfemur -58.4039 -11.4958 26.7183
rtibia 128.196
rfoot -45.1034 -14.8148
rtoes -13.3672
lfemur -56.8571 13.8564 -13.5387
ltibia 131.924
lfoot -43.8407 -18.562
ltoes -3.34977
93
root 0.750318 10.2064 1.50544 170.893 -3.88554 -174.287
lowerback 33.7843 -0.716061 2.61033
upperback 4.0833 -1.23342 1.20948
thorax -12.7663 -1.24845 0.536812
lowerneck -14.8872 -5.45703 -4.06869
upperneck -10.1867 -8.15119 11.7608
head -0.0276775 -4.68312 4.21299
rclavicle -2.84262e-014 5.1684e-015
rhumerus 69.8132 -0.217548 20.495
rradius 42.7547
rwrist -73.1733
rhand -47.8285 -3.85804
rfingers 7.12502
rthumb -20.5036 -32.7954
lclavicle -2.84262e-014 5.1684e-015
lhumerus 63.7117 -8.01215 -32.7597
lradius 33.639
lwrist 31.1404
lhand -47.4758 18.2776
lfingers 7.12502
lthumb -20.1646 47.2511
rfemur -57.3866 -10.8204 26.6585
rtibia 125.945
rfoot -44.5908 -14.8208
rtoes -13.0113
lfemur -56.0506 12.5309 -13.7427
ltibia 129.716
lfoot -43.0703 -18.0325
ltoes -3.56461
94
root 0.740193 10.4541 1.50984 171.144 -3.93186 -174.233
lowerback 33.3952 -0.779443 2.61266
upperback 4.04602 -1.29424 1.19833
thorax -12.6537 -1.26221 0.536539
lowerneck -15.0386 -5.42477 -4.0362
upperneck -9.93502 -8.10784 11.7662
head 0.0777267 -4.64256 4.20048
rclavicle -7.95139e-016 -1.98785e-015
rhumerus 69.9719 -0.186742 20.2333
rradius 42.4769
rwrist -72.7421
rhand -47.7425 -3.93385
rfingers 7.12502
rthumb -20.4209 -32.8801
lclavicle -7.95139e-016 -1.98785e-015
lhumerus 63.8783 -8.12625 -32.9988
lradius 33.5613
lwrist 31.1239
lhand -47.5428 18.2692
lfingers 7.12502
lthumb -20.229 47.2358
rfemur -56.3016 -10.2001 26.6064
rtibia 123.643
rfoot -44.1452 -14.7309
rtoes -12.5996
lfemur -55.184 11.3992 -13.8806
ltibia 127.484
lfoot -42.3605 -17.5748
ltoes -3.68972
95
root 0.730359 10.7011 1.51227 171.398 -3.99183 -174.197
lowerback 32.982 -0.845433 2.61117
upperback 4.00601 -1.36165 1.1602
thorax -12.5337 -1.27814 0.510789
lowerneck -15.1882 -5.40319 -3.9428
upperneck -9.65809 -8.08737 11.75
head 0.189259 -4.61323 4.16686
rclavicle 1.50082e-014 -1.74931e-014
rhumerus 70.1259 -0.160834 19.8439
rradius 42.1838
rwrist -72.1976
rhand -47.6162 -4.18457
rfingers 7.12502
rthumb -20.2995 -33.1437
lclavicle 1.50082e-014 -1.74931e-014
lhumerus 64.0714 -8.2254 -33.4001
lradius 33.4957
lwrist 31.154
lhand -47.5178 18.1664
lfingers 7.12502
lthumb -20.205 47.1356
rfemur -55.1775 -9.6764 26.5275
rtibia 121.311
rfoot -43.7141 -14.6259
rtoes -12.085
lfemur -54.2753 10.3953 -14.0235
ltibia 125.223
lfoot -41.7151 -17.0476
ltoes -4.09557
96
root 0.720126 10.9485 1.51174 171.659 -4.04047 -174.143
lowerback 32.5213 -0.903768 2.61364
upperback 3.96465 -1.41437 1.14868
thorax -12.3935 -1.28677 0.503912
lowerneck -15.3869 -7.46102 -3.30411
upperneck -8.96153 -7.64284 11.9396
head 0.42616 -2.87736 4.12864
rclavicle 6.26172e-015 -1.98785e-015
rhumerus 70.2663 -0.156218 19.5222
rradius 41.9321
rwrist -71.7399
rhand -47.4972 -4.44138
rfingers 7.12502
rthumb -20.1852 -33.4127
lclavicle 6.26172e-015 -1.98785e-015
lhumerus 64.266 -8.30789 -33.6044
lradius 33.3323
lwrist 30.9248
lhand -47.34 17.9018
lfingers 7.12502
lthumb -20.0341 46.889
rfemur -54.0528 -9.18469 26.4722
rtibia 118.97
rfoot -43.3095 -14.4373
rtoes -11.4397
lfemur -53.3462 9.52927 -14.1218
ltibia 122.926
lfoot -41.0629 -16.6049
ltoes -4.26765
97
root 0.710163 11.1991 1.51041 171.913 -4.10079 -174.108
lowerback 32.0837 -0.954565 2.5797
upperback 3.91717 -1.46842 1.14811
thorax -12.2674 -1.29468 0.529326
lowerneck -15.4991 -7.39347 -3.24691
upperneck -8.69198 -7.61098 11.8777
head 0.526547 -2.8652 4.09219
rclavicle -1.33186e-014 0
rhumerus 70.3775 -0.16852 19.4707
rradius 41.7915
rwrist -71.515
rhand -47.4466 -4.78619
rfingers 7.12502
rthumb -20.1366 -33.7626
lclavicle -1.33186e-014 0
lhumerus 64.4415 -8.36162 -33.5722
lradius 33.0813
lwrist 30.2753
lhand -46.9959 17.6922
lfingers 7.12502
lthumb -19.7034 46.7136
rfemur -52.9108 -8.74263 26.3933
rtibia 116.611
rfoot -42.9431 -14.1176
rtoes -10.6075
lfemur -52.3478 8.72955 -14.2236
ltibia 120.561
lfoot -40.4473 -16.1869
ltoes -4.51255
98
root 0.700486 11.4548 1.50681 172.151 -4.17464 -174.052
lowerback 31.6532 -1.00689 2.55715
upperback 3.87894 -1.52176 1.1649
thorax -12.1315 -1.30409 0.566758
lowerneck -15.6298 -7.34479 -3.249
upperneck -8.40326 -7.59829 11.8468
head 0.642938 -2.85972 4.07655
rclavicle 3.18055e-015 6.75868e-015
rhumerus 70.4592 -0.203276 19.5141
rradius 41.723
rwrist -71.4953
rhand -47.446 -5.0181
rfingers 7.12502
rthumb -20.136 -33.9946
lclavicle 3.18055e-015 6.75868e-015
lhumerus 64.6215 -8.4282 -33.5872
lradius 32.8236
lwrist 29.6319
lhand -46.6121 17.4781
lfingers 7.12502
lthumb -19.3343 46.537
rfemur -51.6952 -8.34874 26.3339
rtibia 114.187
rfoot -42.5688 -13.8216
rtoes -9.78056
lfemur -51.2656 7.99267 -14.294
ltibia 118.105
lfoot -39.8155 -15.7502
ltoes -4.74643
99
root 0.689612 11.711 1.50129 172.41 -4.24661 -174.021
lowerback 31.2179 -1.05524 2.5234
upperback 3.8233 -1.57162 1.16375
thorax -12.012 -1.31015 0.589309
lowerneck -15.7099 -7.31324 -3.26391
upperneck -8.14586 -7.60337 11.8413
head 0.743902 -2.86432 4.07274
rclavicle -7.7526e-015 -9.54166e-015
rhumerus 70.5032 -0.229191 19.85
rradius 41.7482
rwrist -71.9091
rhand -47.54 -5.11443
rfingers 7.12502
rthumb -20.2264 -34.0814
lclavicle -7.7526e-015 -9.54166e-015
lhumerus 64.8406 -8.49131 -33.6224
lradius 32.5574
lwrist 28.935
lhand -46.2037 17.379
lfingers 7.12502
lthumb -18.9416 46.4767
rfemur -50.4946 -7.99823 26.2421
rtibia 111.748
rfoot -42.1695 -13.4795
rtoes -8.98923
lfemur -50.1504 7.32102 -14.3886
ltibia 115.588
lfoot -39.1971 -15.3592
ltoes -4.72303
